<svg id="Zones" xmlns="http://www.w3.org/2000/svg" viewBox="0 0 1290.51 1201.92"><title>testvlakken inline</title><polyline points="1.55 43.69 125.58 55.23 0 256.17 43.47 387.62 66.62 388.77 255.53 83.56 272.93 69.62 411.09 83.11 147.54 500.95 207.19 687.1 228.69 689.62 590.08 115.89 606.8 102.22 762.61 117.43 796.46 78.41 29.85 0" style="fill:red;fill-rule:evenodd;opacity:0.30000000000000004"/><polyline points="762.61 117.43 796.46 78.41 896.59 88.73 642.18 498.12 642.18 536.8 687.09 706.66 757.73 817.78 1230.46 507.23 1290.51 599.81 842.41 901.07 846.87 907.59 723.79 988.31 716.59 977.78 612.04 1042.46 572.84 1146.13 272.86 1201.92 247.89 1192.5 244.89 1201.4 230.8 1197.07 467.03 585.43" style="fill:#ffce00;fill-rule:evenodd;opacity:0.30000000000000004"/></svg>