<?xml version="1.0" encoding="utf-8"?>
<!-- Generator: Adobe Illustrator 22.1.0, SVG Export Plug-In . SVG Version: 6.00 Build 0)  -->
<svg version="1.1" id="Laag_1" xmlns="http://www.w3.org/2000/svg" xmlns:xlink="http://www.w3.org/1999/xlink" x="0px" y="0px"
	 viewBox="0 0 3370.4 2383.9" style="enable-background:new 0 0 3370.4 2383.9;" xml:space="preserve">
<g id="water">
	<g>
		<polygon style="fill:#5B91A3;" points="3145.6,1757.7 3035.3,1728.3 3001.5,1719.4 2999.8,1725.9 2980.9,1721.4 2982.4,1714 
			2926.1,1702.6 2918.4,1700.3 2915,1698.9 2911.1,1696.9 2908.1,1694.9 2905.1,1691.8 2903,1689.2 2795.6,1681.7 2683,1664.7 
			2673.4,1639.6 3058.4,1387.5 2969.1,1292.3 2439.8,1638.5 2301.6,1633.3 2292.7,1603.5 2578.8,1414.2 2507.6,1308.9 2024.6,1625 
			1986.2,1601.6 1980.2,1597.9 1981.6,1589.8 1989.2,1484.3 1990.2,1482.4 2103.3,1409.6 2181.5,1358.6 2225.9,1330.3 
			2231.8,1326.7 2259.9,1307.8 2295.5,1284.6 2300.6,1280.2 2316.5,1270 2322.1,1267.7 2376.4,1233 2374,1227.1 2436.6,1186.9 
			2404,1139 2268.7,1229.8 2234.8,1251.2 2230.6,1255.2 2216.1,1263.9 2145,1309.4 2119.4,1326.5 2126.6,1336.4 2096.9,1357.6 
			2101.8,1365.1 2047.6,1400.6 2037.4,1385 1982.9,1421.5 1987.3,1428 1960.1,1446.5 1933.1,1463.4 1864.3,1508.7 1857.1,1498.2 
			1752.5,1562.9 1713.3,1666.5 1560.1,1694.9 1418.7,1721.7 1413.3,1722.3 1388.4,1712.9 1385.4,1721.8 1371.4,1717.4 
			1371.3,1717.4 1513.1,1348.5 1607.5,1105.8 1903.1,637.8 1747.3,622.6 1730.5,636.3 1369.2,1210 1347.7,1207.5 1288,1021.4 
			1551.6,603.5 1413.4,590 1396,604 1207.1,909.2 1183.9,908 1140.5,776.6 1266.1,575.6 1142,564.1 1064.7,672 986.3,799.3 
			989.2,815.1 1138.8,1118 1226.9,1293.2 1198.2,1307.7 1205.8,1315.3 1190.6,1330.3 1264.7,1402.7 1272.5,1410.6 1273.8,1413 
			1273.5,1414.7 1271.8,1415.4 1270.2,1414.9 1266,1419.2 1268.5,1422 1240.7,1458.1 1238.8,1464.6 1237.3,1466.6 1245.2,1477.5 
			1247.4,1484 1247.5,1491.6 1242.2,1498.7 1234.8,1505.3 1232,1503.7 1229.9,1503.7 1155,1596.8 1159.3,1601 1112.5,1661.3 
			1107.1,1656 1037,1744.6 947.3,1859.3 942.4,1864.1 934,1868.6 835.1,1903 829.7,1902.5 825.9,1900.4 824.2,1893.9 823.5,1890.2 
			803.2,1778.8 802.5,1769.2 794,1655.4 787.3,1516.4 764.1,1518.7 765.9,1536.8 758.2,1537.3 757.4,1530.5 748.7,1451.6 
			748,1444.9 745.9,1426 744.6,1413.7 744.1,1408.7 748.7,1320.3 750.2,1293.8 751.3,1288.5 757.2,1286.3 758.2,1268.5 756.8,1253 
			755,1241.2 751,1238.2 747.1,1216.6 732.2,1163.7 723.1,1134.6 717.4,1117.5 706.2,1090.3 682,1040 635.1,937.1 592.7,843.7 
			550.1,750.6 527.5,702.1 510.6,670.9 498.4,649.2 477.2,618.1 451.6,582.4 434.4,560.1 410.5,532.8 396.1,519.9 376.6,501.2 
			359.7,487.5 343.6,475.1 329,465.5 327.5,465.1 302.3,450.5 286.8,444.5 256.3,438.7 246.7,437.1 231.9,434.8 202.9,425.3 
			160.3,413.3 119.8,405.3 119.8,428 152.7,434.5 200.3,446.6 225,452.9 223.5,458.2 252.7,467.5 300.6,485.8 313.4,490.9 
			321.1,495.9 340.5,513.1 365.1,539.4 398.7,578.8 427.9,617.4 466.8,673.7 492.3,712 499.6,725.1 510.7,744.7 526.6,776.5 
			536.8,796.4 540.5,804.1 560.9,848.9 606.8,951.3 620.1,984.9 624.3,999.4 623.7,1002.1 627.2,1004.7 629,1008.4 630.2,1015.6 
			629.8,1019.2 624.8,1022.9 604,1031.9 582.5,1041.2 568.2,1047.7 571.6,1054 581,1071 588.6,1067.7 615.6,1051.2 629.4,1061.4 
			624.3,1064.7 627.9,1073.7 638.2,1068.6 650.6,1081.3 650.4,1084.9 666.4,1100.2 678.6,1109.9 692.8,1144.7 696.9,1158.7 
			698.4,1167.2 701.8,1179.6 705.8,1212.1 706.1,1214.1 717,1284.5 729.5,1372.7 733,1403.1 734.8,1415 738.6,1445.9 739.5,1452.7 
			746.4,1519.7 747.6,1531.6 748.2,1537.6 738.3,1538.5 736.2,1521.4 730.6,1521.5 742.2,1639.6 773.4,1918.2 772.7,1929.6 
			661.3,1967.3 658.7,1960.3 655.3,1961.2 543.1,2000.6 477.4,2023.2 3255.7,2023.2 3255.7,1787.1 		"/>
		<polygon style="fill:#5B91A3;" points="503.8,1083.8 517.4,1083.7 539.7,1080.9 540.8,1072.8 560,1063.7 555.1,1055.4 
			541.8,1061.7 538,1058.4 521.9,1057.7 515.7,1056.2 509.7,1051.3 431.2,972.2 346.2,888.7 353.7,877.5 345.2,872.4 338.5,880.5 
			311.5,854.5 155,699.9 126.1,671.7 116.6,662.2 116.6,715.6 116.9,715.9 133.7,732.6 125.9,740.7 142.3,760.2 259.1,877.2 
			311,928.1 338.3,956.1 338.8,966.6 343.2,971.2 339.3,975.1 332.6,981.8 319,980.4 314,982.9 297.2,999.3 214.2,1082.4 
			208.7,1090.8 201.2,1104.3 195.7,1110.9 187.1,1119.7 158.7,1148 130,1176.4 119,1188 118.4,1192.7 116.6,1194.7 116.6,1252.2 
			119.9,1246.9 136.6,1228.1 216.8,1148.9 270.6,1094.8 330.3,1036.5 346.9,1019.7 350.2,1013.4 349.2,1005.6 346,998.2 
			354.4,989.3 358.8,984.7 363.8,988 371,987.9 383.2,999.3 387.1,1003.2 413.7,1029.6 441.6,1056.9 454.9,1068.4 464,1074.1 
			475.5,1078.9 489.2,1082.2 		"/>
	</g>
</g>
<g>
	<polygon style="fill:#AFAFAE;" points="3255.6,359 3255.6,318 116.8,318 116.8,362 116.8,362 116.8,662.4 126.1,671.7 155,699.9 
		311.5,854.5 338.5,880.5 345.2,872.4 353.7,877.5 346.2,888.7 431.2,972.2 509.7,1051.3 515.7,1056.2 521.9,1057.7 538,1058.4 
		541.8,1061.7 555.1,1055.4 560,1063.7 540.8,1072.8 539.7,1080.9 517.4,1083.7 503.8,1083.8 489.2,1082.2 475.5,1078.9 464,1074.1 
		454.9,1068.4 441.6,1056.9 413.7,1029.6 387.1,1003.2 383.2,999.3 371,987.9 363.8,988 358.8,984.7 354.4,989.3 346,998.2 
		349.2,1005.6 350.2,1013.4 346.9,1019.7 330.3,1036.5 270.6,1094.8 216.8,1148.9 136.6,1228.1 119.9,1246.9 116.8,1251.9 
		116.8,2023.2 477.4,2023.2 543.1,2000.6 655.3,1961.2 658.7,1960.3 661.3,1967.3 772.7,1929.6 773.4,1918.2 742.2,1639.6 
		730.6,1521.5 736.2,1521.4 738.3,1538.5 748.2,1537.6 747.6,1531.6 746.4,1519.7 739.5,1452.7 738.6,1445.9 734.8,1415 733,1403.1 
		729.5,1372.7 717,1284.5 706.1,1214.1 705.8,1212.1 701.8,1179.6 698.4,1167.2 696.9,1158.7 692.8,1144.7 678.6,1109.9 
		666.4,1100.2 650.4,1084.9 650.6,1081.3 638.2,1068.6 627.9,1073.7 624.3,1064.7 629.4,1061.4 615.6,1051.2 588.6,1067.7 581,1071 
		571.6,1054 568.2,1047.7 582.5,1041.2 604,1031.9 624.8,1022.9 629.8,1019.2 630.2,1015.6 629,1008.4 627.2,1004.7 623.7,1002.1 
		624.3,999.4 620.1,984.9 606.8,951.3 560.9,848.9 540.5,804.1 536.8,796.4 526.6,776.5 510.7,744.7 499.6,725.1 492.3,712 
		466.8,673.7 427.9,617.4 398.7,578.8 365.1,539.4 340.5,513.1 321.1,495.9 313.4,490.9 300.6,485.8 252.7,467.5 223.5,458.2 
		225,452.9 200.3,446.6 152.7,434.5 119.8,428 119.8,405.3 160.3,413.3 202.9,425.3 231.9,434.8 246.7,437.1 256.3,438.7 
		286.8,444.5 302.3,450.5 327.5,465.1 329,465.5 343.6,475.1 359.7,487.5 376.6,501.2 396.1,519.9 410.5,532.8 434.4,560.1 
		451.6,582.4 477.2,618.1 498.4,649.2 510.6,670.9 527.5,702.1 550.1,750.6 592.7,843.7 635.1,937.1 682,1040 706.2,1090.3 
		717.4,1117.5 723.1,1134.6 732.2,1163.7 747.1,1216.6 751,1238.2 755,1241.2 756.8,1253 758.2,1268.5 757.2,1286.3 751.3,1288.5 
		750.2,1293.8 748.7,1320.3 744.1,1408.7 744.6,1413.7 745.9,1426 748,1444.9 748.7,1451.6 757.4,1530.5 758.2,1537.3 765.9,1536.8 
		764.1,1518.7 787.3,1516.4 794,1655.4 802.5,1769.2 803.2,1778.8 823.5,1890.2 824.2,1893.9 825.9,1900.4 829.7,1902.5 835.1,1903 
		934,1868.6 942.4,1864.1 947.3,1859.3 1037,1744.6 1107.1,1656 1112.5,1661.3 1159.3,1601 1155,1596.8 1229.9,1503.7 1232,1503.7 
		1234.8,1505.3 1242.2,1498.7 1247.5,1491.6 1247.4,1484 1245.2,1477.5 1237.3,1466.6 1238.8,1464.6 1240.7,1458.1 1268.5,1422 
		1266,1419.2 1270.2,1414.9 1271.8,1415.4 1273.5,1414.7 1273.8,1413 1272.5,1410.6 1264.7,1402.7 1190.6,1330.3 1205.8,1315.3 
		1198.2,1307.7 1226.9,1293.2 1138.8,1118 989.2,815.1 986.3,799.3 1064.7,672 1142,564.1 1266.1,575.6 1140.5,776.6 1183.9,908 
		1207.1,909.2 1396,604 1413.4,590 1551.6,603.5 1288,1021.4 1347.7,1207.5 1369.2,1210 1730.5,636.3 1747.3,622.6 1903.1,637.8 
		1607.5,1105.8 1513.1,1348.5 1371.3,1717.4 1371.4,1717.4 1385.4,1721.8 1388.4,1712.9 1413.3,1722.3 1418.7,1721.7 1560.1,1694.9 
		1713.3,1666.5 1752.5,1562.9 1857.1,1498.2 1864.3,1508.7 1933.1,1463.4 1960.1,1446.5 1987.3,1428 1982.9,1421.5 2037.4,1385 
		2047.6,1400.6 2101.8,1365.1 2096.9,1357.6 2126.6,1336.4 2119.4,1326.5 2145,1309.4 2216.1,1263.9 2230.6,1255.2 2234.8,1251.2 
		2268.7,1229.8 2404,1139 2436.6,1186.9 2374,1227.1 2376.4,1233 2322.1,1267.7 2316.5,1270 2300.6,1280.2 2295.5,1284.6 
		2259.9,1307.8 2231.8,1326.7 2225.9,1330.3 2181.5,1358.6 2103.3,1409.6 1990.2,1482.4 1989.2,1484.3 1981.6,1589.8 1980.2,1597.9 
		1986.2,1601.6 2024.6,1625 2507.6,1308.9 2578.8,1414.2 2292.7,1603.5 2301.6,1633.3 2439.8,1638.5 2969.1,1292.3 3058.4,1387.5 
		2673.4,1639.6 2683,1664.7 2795.6,1681.7 2903,1689.2 2905.1,1691.8 2908.1,1694.9 2911.1,1696.9 2915,1698.9 2918.4,1700.3 
		2926.1,1702.6 2982.4,1714 2980.9,1721.4 2999.8,1725.9 3001.5,1719.4 3035.3,1728.3 3145.6,1757.7 3255.7,1787.1 3255.7,359 	"/>
	<polygon style="fill:#AFAFAE;" points="119,1188 130,1176.4 158.7,1148 187.1,1119.7 195.7,1110.9 201.2,1104.3 208.7,1090.8 
		214.2,1082.4 297.2,999.3 314,982.9 319,980.4 332.6,981.8 339.3,975.1 343.2,971.2 338.8,966.6 338.3,956.1 311,928.1 
		259.1,877.2 142.3,760.2 125.9,740.7 133.7,732.6 116.9,715.9 116.8,715.7 116.8,1194.5 118.4,1192.7 	"/>
	<polygon style="fill:#AFAFAE;" points="116.6,1194.7 116.6,1252.2 116.8,1251.9 116.8,1194.5 	"/>
	<polygon style="fill:#AFAFAE;" points="116.6,662.2 116.6,715.6 116.8,715.7 116.8,662.4 	"/>
</g>
<g id="park">
	<polygon style="fill:#639A27;" points="1960.1,755.3 1756.1,1082.3 2012.5,1247.2 2309.5,1020.8 	"/>
</g>
<g id="grondgebonden">
	<polygon style="fill:#616360;" points="1942.4,744.5 1737,1073.2 1663.7,1028.5 1871,699.9 	"/>
	<polygon style="fill:#616360;" points="2322.4,1037.2 2319.7,1039.2 2033,1257.9 2116.4,1317.2 2119,1319.9 2399,1135.9 	"/>
</g>
</svg>
